<?xml version="1.0" encoding="utf-8"?>
<!-- Generator: Adobe Illustrator 27.2.0, SVG Export Plug-In . SVG Version: 6.00 Build 0)  -->
<svg version="1.1" id="Layer_1" xmlns="http://www.w3.org/2000/svg" xmlns:xlink="http://www.w3.org/1999/xlink" x="0px" y="0px"
	 viewBox="0 0 700 700" style="enable-background:new 0 0 700 700;" xml:space="preserve">
<style type="text/css">
	.st0{fill:#BABBC4;}
</style>
<path class="st0" d="M670.4,210.1C634,126.4,566.3,60.2,481.8,25.8s-179.2-34.4-263.7,0C133.5,60.2,65.8,126.4,29.4,210.1v0.3v0
	c-19.3,44-29.2,91.5-29.2,139.6c0,48,10,95.6,29.2,139.6v0.3v0c36.4,83.7,104.1,149.9,188.7,184.4c84.6,34.4,179.3,34.4,263.8,0
	c84.6-34.5,152.3-100.6,188.7-184.4v-0.3v0c19.3-44,29.2-91.5,29.2-139.6s-10-95.6-29.2-139.6L670.4,210.1z M607.8,195.4H489.2
	c-8.4-46.5-24.7-91.3-48.1-132.3C510.8,85.5,570.1,132.5,607.8,195.4L607.8,195.4z M455.7,350c0,35.4-2.5,70.7-7.5,105.8H251.6
	c-10-70.2-10-141.4,0-211.6h196.6h0C453.2,279.3,455.7,314.6,455.7,350L455.7,350z M349.9,48.9c33.3,0,69.1,57.4,89.3,146.5H260.6
	C280.8,106.3,316.6,48.9,349.9,48.9L349.9,48.9z M258.8,63.1c-23.4,41.1-39.7,85.8-48.1,132.3H92C129.7,132.5,189,85.5,258.8,63.1
	L258.8,63.1z M48.8,350c0.1-36.2,6.7-72,19.5-105.8h134.1c-9.5,70.2-9.5,141.4,0,211.6H68.4C55.5,422,48.9,386.2,48.8,350L48.8,350z
	 M92,504.6h118.6c8.4,46.5,24.7,91.3,48.1,132.3C189,614.5,129.7,567.5,92,504.6L92,504.6z M349.9,651.1
	c-33.3,0-69.1-57.4-89.3-146.5h178.6C418.9,593.7,383.1,651.1,349.9,651.1L349.9,651.1z M441,636.9c23.5-41.1,39.8-85.8,48.2-132.3
	h118.6C570.1,567.5,510.9,614.5,441,636.9L441,636.9z M631.5,455.8H497.3c4.7-35.1,7.1-70.4,7.2-105.8c0-35.4-2.4-70.7-7.2-105.8
	h134.1C657.5,312.3,657.5,387.7,631.5,455.8L631.5,455.8z"/>
</svg>
